<svg width="28" height="30" viewBox="0 0 28 30" fill="none" xmlns="http://www.w3.org/2000/svg">
<path fill-rule="evenodd" clip-rule="evenodd" d="M24.0658 25.5982C24.0658 26.4697 23.3142 26.8423 22.3882 26.8423H20.7106C19.7845 26.8423 19.0329 26.4697 19.0329 25.5982V24.0192C19.0329 22.2745 17.5314 20.5265 15.6777 20.5265H12.3224C10.4686 20.5265 8.96714 22.2745 8.96714 24.0192V25.5982C8.96714 26.4697 8.21556 26.8423 7.28951 26.8423H5.61187C4.68582 26.8423 3.93424 26.4697 3.93424 25.5982V12.867C3.93424 12.657 4.02315 12.4565 4.17917 12.3081L12.7972 4.19862C13.4531 3.58125 14.5151 3.58125 15.1694 4.19862L23.8209 12.3397C23.9769 12.4881 24.0658 12.6887 24.0658 12.8971V25.5982ZM27.4211 12.0397C27.4211 11.6213 27.245 11.2218 26.9329 10.925L16.3655 0.93019C15.057 -0.306125 12.9314 -0.310833 11.6178 0.920746L1.07221 10.8129C0.756813 11.1097 0.578979 11.5108 0.578979 11.9308V27.1771C0.578979 28.9218 2.08046 30.0002 3.93424 30.0002H8.96714C10.8209 30.0002 12.3224 28.9218 12.3224 27.1771V25.5982C12.3224 24.7266 13.074 24.0192 14 24.0192C14.9261 24.0192 15.6777 24.7266 15.6777 25.5982V27.1771C15.6777 28.9218 17.1791 30.0002 19.0329 30.0002H24.0658C25.9196 30.0002 27.4211 28.9218 27.4211 27.1771V12.0397Z" fill="black"/>
</svg>
