<svg width="16" height="16" viewBox="0 0 16 16" fill="none" xmlns="http://www.w3.org/2000/svg">
<path d="M8.00041 8.28125C4.98147 8.28125 2.52539 10.7379 2.52539 13.7574C2.52539 13.9744 2.70124 14.1503 2.91814 14.1503H13.0826C13.2995 14.1503 13.4754 13.9744 13.4754 13.7574C13.4754 10.7379 11.0194 8.28125 8.00041 8.28125ZM3.32718 13.3646C3.49877 11.3046 5.00712 9.61865 6.97971 9.179L7.4701 9.66949L7.29095 11.839C7.28351 11.929 7.30801 12.0187 7.36018 12.0924L7.85995 12.7988C7.89217 12.8444 7.94455 12.8715 8.00037 12.8715C8.05618 12.8715 8.10854 12.8444 8.14079 12.7988L8.64056 12.0924C8.69272 12.0187 8.71723 11.929 8.70978 11.839L8.53063 9.66949L9.02102 9.179C10.9936 9.61862 12.502 11.3046 12.6736 13.3646H3.32718Z" fill="white" stroke="white" stroke-width="0.85"/>
<path d="M8.00079 1.85156C6.44846 1.85156 5.18555 3.11448 5.18555 4.6668C5.18555 6.21913 6.44846 7.48205 8.00079 7.48205C9.55311 7.48205 10.816 6.21913 10.816 4.6668C10.816 3.11448 9.55311 1.85156 8.00079 1.85156ZM8.00079 6.69646C6.88163 6.69646 5.97113 5.78596 5.97113 4.6668C5.97113 3.54764 6.88163 2.63715 8.00079 2.63715C9.11995 2.63715 10.0304 3.54764 10.0304 4.6668C10.0304 5.78596 9.11993 6.69646 8.00079 6.69646Z" fill="white" stroke="white" stroke-width="0.85"/>
</svg>
