<svg width="20" height="21" viewBox="0 0 20 21" fill="none" xmlns="http://www.w3.org/2000/svg">
<rect y="0.429688" width="20" height="20" rx="4" fill="#FFEEEE"/>
<path d="M10 5.42969C7.25 5.42969 5 7.67969 5 10.4297C5 13.1797 7.25 15.4297 10 15.4297C12.75 15.4297 15 13.1797 15 10.4297C15 7.67969 12.75 5.42969 10 5.42969ZM10 6.5408C10.8611 6.5408 11.6667 6.84635 12.3333 7.31858L6.88889 12.763C6.41667 12.0964 6.11111 11.2908 6.11111 10.4297C6.11111 8.2908 7.86111 6.5408 10 6.5408ZM10 14.3186C9.13889 14.3186 8.33333 14.013 7.66667 13.5408L13.1111 8.09635C13.5833 8.76302 13.8889 9.56858 13.8889 10.4297C13.8889 12.5686 12.1389 14.3186 10 14.3186Z" fill="#EA6262"/>
</svg>
