<svg width="20" height="21" viewBox="0 0 20 21" fill="none" xmlns="http://www.w3.org/2000/svg">
<rect y="0.429688" width="20" height="20" rx="4" fill="#D9F4E4"/>
<path d="M7.84753 12.4107L14.1973 6.21832C14.3946 6.0259 14.6457 5.92969 14.9507 5.92969C15.2556 5.92969 15.5067 6.0259 15.704 6.21832C15.9013 6.41074 16 6.65563 16 6.95301C16 7.25039 15.9013 7.49529 15.704 7.68771L8.6009 14.6148C8.38565 14.8247 8.13453 14.9297 7.84753 14.9297C7.56054 14.9297 7.30942 14.8247 7.09417 14.6148L4.29596 11.886C4.09865 11.6935 4 11.4486 4 11.1513C4 10.8539 4.09865 10.609 4.29596 10.4166C4.49327 10.2241 4.74439 10.1279 5.04933 10.1279C5.35426 10.1279 5.60538 10.2241 5.80269 10.4166L7.84753 12.4107Z" fill="#22C55E"/>
</svg>
