<svg width="19" height="20" viewBox="0 0 19 20" fill="none" xmlns="http://www.w3.org/2000/svg">
<path d="M12.0586 4.40625H12.0636V4.41125H12.0586V4.40625Z" stroke="black" stroke-linecap="round" stroke-linejoin="round"/>
<path d="M12.4631 4.40395C12.4631 4.51108 12.4206 4.61383 12.3448 4.68958C12.2691 4.76534 12.1663 4.8079 12.0592 4.8079C11.9521 4.8079 11.8493 4.76534 11.7736 4.68958C11.6978 4.61383 11.6553 4.51108 11.6553 4.40395C11.6553 4.29682 11.6978 4.19407 11.7736 4.11831C11.8493 4.04256 11.9521 4 12.0592 4C12.1663 4 12.2691 4.04256 12.3448 4.11831C12.4206 4.19407 12.4631 4.29682 12.4631 4.40395ZM12.0592 9.64721H12.0673V9.65529H12.0592V9.64721Z" stroke="black" stroke-linecap="round" stroke-linejoin="round"/>
<path d="M12.4631 9.64614C12.4631 9.75327 12.4206 9.85602 12.3448 9.93177C12.2691 10.0075 12.1663 10.0501 12.0592 10.0501C11.9521 10.0501 11.8493 10.0075 11.7736 9.93177C11.6978 9.85602 11.6553 9.75327 11.6553 9.64614C11.6553 9.539 11.6978 9.43626 11.7736 9.3605C11.8493 9.28475 11.9521 9.24219 12.0592 9.24219C12.1663 9.24219 12.2691 9.28475 12.3448 9.3605C12.4206 9.43626 12.4631 9.539 12.4631 9.64614ZM12.0592 14.9056H12.0673V14.9136H12.0592V14.9056Z" stroke="black" stroke-linecap="round" stroke-linejoin="round"/>
<path d="M12.4632 14.9089C12.4632 15.0161 12.4206 15.1188 12.3449 15.1946C12.2691 15.2703 12.1664 15.3129 12.0593 15.3129C11.9521 15.3129 11.8494 15.2703 11.7736 15.1946C11.6979 15.1188 11.6553 15.0161 11.6553 14.9089C11.6553 14.8018 11.6979 14.699 11.7736 14.6233C11.8494 14.5475 11.9521 14.505 12.0593 14.505C12.1664 14.505 12.2691 14.5475 12.3449 14.6233C12.4206 14.699 12.4632 14.8018 12.4632 14.9089ZM6.4043 4.40625H6.41238V4.41433H6.4043V4.40625Z" stroke="black" stroke-linecap="round" stroke-linejoin="round"/>
<path d="M6.80785 4.40395C6.80785 4.51108 6.7653 4.61383 6.68955 4.68958C6.61379 4.76534 6.51105 4.8079 6.40393 4.8079C6.2968 4.8079 6.19406 4.76534 6.11831 4.68958C6.04256 4.61383 6 4.51108 6 4.40395C6 4.29682 6.04256 4.19407 6.11831 4.11831C6.19406 4.04256 6.2968 4 6.40393 4C6.51105 4 6.61379 4.04256 6.68955 4.11831C6.7653 4.19407 6.80785 4.29682 6.80785 4.40395ZM6.40393 9.64721H6.41201V9.65529H6.40393V9.64721Z" stroke="black" stroke-linecap="round" stroke-linejoin="round"/>
<path d="M6.80785 9.64614C6.80785 9.75327 6.7653 9.85602 6.68955 9.93177C6.61379 10.0075 6.51105 10.0501 6.40393 10.0501C6.2968 10.0501 6.19406 10.0075 6.11831 9.93177C6.04256 9.85602 6 9.75327 6 9.64614C6 9.539 6.04256 9.43626 6.11831 9.3605C6.19406 9.28475 6.2968 9.24219 6.40393 9.24219C6.51105 9.24219 6.61379 9.28475 6.68955 9.3605C6.7653 9.43626 6.80785 9.539 6.80785 9.64614ZM6.40393 14.9056H6.41201V14.9136H6.40393V14.9056Z" stroke="black" stroke-linecap="round" stroke-linejoin="round"/>
<path d="M6.80785 14.9039C6.80785 15.0111 6.7653 15.1138 6.68955 15.1896C6.61379 15.2653 6.51105 15.3079 6.40393 15.3079C6.2968 15.3079 6.19406 15.2653 6.11831 15.1896C6.04256 15.1138 6 15.0111 6 14.9039C6 14.7968 6.04256 14.6941 6.11831 14.6183C6.19406 14.5426 6.2968 14.5 6.40393 14.5C6.51105 14.5 6.61379 14.5426 6.68955 14.6183C6.7653 14.6941 6.80785 14.7968 6.80785 14.9039Z" stroke="black" stroke-linecap="round" stroke-linejoin="round"/>
</svg>
