<svg width="28" height="29" viewBox="0 0 28 29" fill="none" xmlns="http://www.w3.org/2000/svg">
<path fill-rule="evenodd" clip-rule="evenodd" d="M14.4099 11.8876C15.3388 10.5425 15.1544 8.72205 13.9743 7.59073C12.7778 6.4414 10.9479 6.26612 9.55493 7.16744C8.98308 7.53708 8.53433 8.06874 8.266 8.69456C8.00153 9.31426 7.93221 9.99984 8.06728 10.6599C8.20294 11.3231 8.53489 11.9301 9.02003 12.4021C9.51441 12.88 10.1373 13.2035 10.8125 13.3331C11.4925 13.4658 12.1963 13.3992 12.8392 13.1412C13.4745 12.8869 14.0209 12.4508 14.4099 11.8876Z" stroke="#1C274C" stroke-width="1.5" stroke-linecap="round" stroke-linejoin="round"/>
<path fill-rule="evenodd" clip-rule="evenodd" d="M14.5902 21.8876C13.6611 20.5424 13.8457 18.722 15.0257 17.5907C16.2222 16.4414 18.0522 16.2661 19.4451 17.1674C20.017 17.5371 20.4656 18.0687 20.734 18.6945C20.9985 19.3142 21.0678 19.9998 20.9327 20.6599C20.797 21.323 20.4651 21.93 19.98 22.4021C19.4857 22.8799 18.8627 23.2035 18.1875 23.333C17.5087 23.4645 16.8065 23.3974 16.1649 23.1398C15.5282 22.8865 14.9804 22.4509 14.5902 21.8876Z" stroke="#1C274C" stroke-width="1.5" stroke-linecap="round" stroke-linejoin="round"/>
<path d="M14.498 9.53906C13.9881 9.53906 13.5748 9.93081 13.5748 10.4141C13.5748 10.8973 13.9881 11.2891 14.498 11.2891V9.53906ZM23.1148 11.2891C23.6246 11.2891 24.038 10.8973 24.038 10.4141C24.038 9.93081 23.6246 9.53906 23.1148 9.53906V11.2891ZM8.16714 11.2891C8.67702 11.2891 9.09037 10.8973 9.09037 10.4141C9.09037 9.93081 8.67702 9.53906 8.16714 9.53906V11.2891ZM5.88123 9.53906C5.37135 9.53906 4.95801 9.93081 4.95801 10.4141C4.95801 10.8973 5.37135 11.2891 5.88123 11.2891V9.53906ZM14.498 20.6224C15.0079 20.6224 15.4212 20.2306 15.4212 19.7474C15.4212 19.2642 15.0079 18.8724 14.498 18.8724V20.6224ZM5.88123 18.8724C5.37135 18.8724 4.95801 19.2642 4.95801 19.7474C4.95801 20.2306 5.37135 20.6224 5.88123 20.6224V18.8724ZM20.8289 18.8724C20.319 18.8724 19.9056 19.2642 19.9056 19.7474C19.9056 20.2306 20.319 20.6224 20.8289 20.6224V18.8724ZM23.1148 20.6224C23.6246 20.6224 24.038 20.2306 24.038 19.7474C24.038 19.2642 23.6246 18.8724 23.1148 18.8724V20.6224ZM14.498 11.2891H23.1148V9.53906H14.498V11.2891ZM8.16714 9.53906H5.88123V11.2891H8.16714V9.53906ZM14.498 18.8724H5.88123V20.6224H14.498V18.8724ZM20.8289 20.6224H23.1148V18.8724H20.8289V20.6224Z" fill="#1C274C"/>
</svg>
