<svg width="22" height="23" viewBox="0 0 22 23" fill="none" xmlns="http://www.w3.org/2000/svg">
<rect y="0.429688" width="22" height="22" rx="4" fill="#FFEEEE"/>
<path d="M11 12.6253L8.46361 15.1688C8.30326 15.3282 8.09918 15.4079 7.85137 15.4079C7.60356 15.4079 7.39948 15.3282 7.23913 15.1688C7.07971 15.0094 7 14.8065 7 14.5601C7 14.3137 7.07971 14.1108 7.23913 13.9514L9.78261 11.4079L7.23913 8.89334C7.07971 8.73298 7 8.52889 7 8.28108C7 8.03325 7.07971 7.82917 7.23913 7.66882C7.39855 7.5094 7.60145 7.42969 7.84783 7.42969C8.0942 7.42969 8.2971 7.5094 8.45652 7.66882L11 10.2123L13.5146 7.66882C13.675 7.5094 13.8791 7.42969 14.1269 7.42969C14.3747 7.42969 14.5788 7.5094 14.7391 7.66882C14.913 7.84273 15 8.04925 15 8.28838C15 8.52751 14.913 8.72679 14.7391 8.88621L12.1957 11.4079L14.7391 13.9443C14.8986 14.1047 14.9783 14.3088 14.9783 14.5566C14.9783 14.8044 14.8986 15.0085 14.7391 15.1688C14.5652 15.3427 14.3587 15.4297 14.1196 15.4297C13.8804 15.4297 13.6812 15.3427 13.5217 15.1688L11 12.6253Z" fill="#EC8181"/>
</svg>
