<svg width="45" height="45" viewBox="0 0 45 45" fill="none" xmlns="http://www.w3.org/2000/svg">
<path d="M26.1392 20.3203L28.2892 20.9653C29.6622 21.3773 30.3492 21.5833 30.7442 22.1153C31.1392 22.6453 31.1392 23.3633 31.1392 24.7963V32.3203M18.1392 19.3203H21.1392M18.1392 23.3203H21.1392M22.1392 32.3203V29.3203C22.1392 28.3773 22.1392 27.9063 21.8462 27.6133C21.5532 27.3203 21.0822 27.3203 20.1392 27.3203H19.1392C18.1962 27.3203 17.7252 27.3203 17.4322 27.6133C17.1392 27.9063 17.1392 28.3773 17.1392 29.3203V32.3203M12.1392 32.3203H32.1392" stroke="#219090" stroke-width="1.5" stroke-linecap="round" stroke-linejoin="round"/>
<path d="M13.1392 32.3204V17.0374C13.1392 14.5274 13.1392 13.2714 13.9302 12.6484C14.7212 12.0254 15.8862 12.3644 18.2172 13.0404L23.2172 14.4914C24.6232 14.8994 25.3262 15.1034 25.7322 15.6604C26.1392 16.2164 26.1392 16.9734 26.1392 18.4894V32.3204" stroke="#219090" stroke-width="1.5" stroke-linecap="round" stroke-linejoin="round"/>
</svg>
