<svg width="45" height="45" viewBox="0 0 45 45" fill="none" xmlns="http://www.w3.org/2000/svg">
<path d="M22.418 34.3203C21.4182 34.3203 20.4624 33.9243 18.5521 33.1323C13.7964 31.1595 11.418 30.1719 11.418 28.5123V16.3203M22.418 34.3203C23.4177 34.3203 24.3735 33.9243 26.2839 33.1323C31.0395 31.1595 33.418 30.1719 33.418 28.5123V16.3203M22.418 34.3203V21.5463M15.0846 22.3203L17.5291 23.5203M28.5291 12.7203L16.3069 18.7203M17.9275 19.5495L14.3574 17.8539C12.3982 16.9227 11.418 16.4571 11.418 15.7203C11.418 14.9835 12.3982 14.5179 14.3574 13.5867L17.9263 11.8911C20.1324 10.8435 21.2324 10.3203 22.418 10.3203C23.6035 10.3203 24.7047 10.8435 26.9084 11.8911L30.4785 13.5867C32.4377 14.5179 33.418 14.9835 33.418 15.7203C33.418 16.4571 32.4377 16.9227 30.4785 17.8539L26.9096 19.5495C24.7035 20.5971 23.6035 21.1203 22.418 21.1203C21.2324 21.1203 20.1312 20.5971 17.9275 19.5495Z" stroke="#1814F3" stroke-width="1.5" stroke-linecap="round" stroke-linejoin="round"/>
</svg>
