<svg width="45" height="45" viewBox="0 0 45 45" fill="none" xmlns="http://www.w3.org/2000/svg">
<path d="M13.7471 13.4707H23.1221C23.649 13.4714 24.169 13.5831 24.6455 13.7979C25.0627 13.9859 25.4377 14.2486 25.75 14.5713L25.8799 14.7129L29.542 18.9033L29.5732 18.9395L29.6191 18.9502L34.6885 20.1885C35.468 20.3753 36.1598 20.8064 36.6533 21.4121C37.1466 22.0176 37.4139 22.7633 37.415 23.5303V26.8203C37.415 27.7164 36.639 28.4707 35.6904 28.4707H34.4922L34.4619 28.5811C34.0616 30.0623 32.6719 31.1699 31.0029 31.1699C29.334 31.1699 27.9443 30.0623 27.5439 28.5811L27.5137 28.4707H18.5547L18.5244 28.5811C18.1241 30.0623 16.7344 31.1699 15.0654 31.1699C14.2379 31.1677 13.4368 30.8928 12.7969 30.3916C12.157 29.8904 11.7171 29.1937 11.5498 28.4199L11.5303 28.3281L11.4395 28.3066L9.00684 27.7148C8.63484 27.624 8.30581 27.4165 8.07227 27.127C7.83897 26.8376 7.71427 26.4824 7.71582 26.1182V20.1543C7.71469 19.6551 7.86775 19.1662 8.15723 18.75L10.7646 15.0088C11.4326 14.0483 12.5428 13.4708 13.7471 13.4707ZM15.0654 25.7705C13.9412 25.7705 13.04 26.6269 13.04 27.7207C13.0403 28.8144 13.9414 29.6699 15.0654 29.6699C16.1895 29.6699 17.0906 28.8144 17.0908 27.7207C17.0908 26.6268 16.1896 25.7705 15.0654 25.7705ZM31.0029 25.7705C29.8787 25.7705 28.9775 26.6268 28.9775 27.7207C28.9778 28.8144 29.8789 29.6699 31.0029 29.6699C32.127 29.6699 33.0281 28.8144 33.0283 27.7207C33.0283 26.6268 32.1271 25.7705 31.0029 25.7705ZM9.29004 26.2363L9.40527 26.2637L11.4854 26.7686L11.6191 26.8018L11.6631 26.6709C12.1292 25.2838 13.4679 24.2705 15.0654 24.2705C16.7344 24.2705 18.1241 25.3782 18.5244 26.8594L18.5547 26.9707H27.5137L27.5439 26.8594C27.9443 25.3782 29.334 24.2705 31.0029 24.2705C32.6719 24.2705 34.0616 25.3782 34.4619 26.8594L34.4922 26.9707H35.8408V23.5303C35.8452 23.0951 35.6963 22.6719 35.4199 22.3291C35.1434 21.9862 34.7554 21.7436 34.3193 21.6396L29.0459 20.374L29.0283 20.3701H9.29004V26.2363ZM13.7471 14.9707C13.4174 14.9674 13.091 15.0431 12.7988 15.1914C12.5061 15.34 12.2554 15.5563 12.0713 15.8223L12.0449 15.8613V15.8877L10.1377 18.6348L9.97363 18.8701H18.0283V14.9707H13.7471ZM19.6025 18.8701H27.4658L27.249 18.6221L24.6709 15.6689C24.2863 15.2239 23.7202 14.9707 23.1221 14.9707H19.6025V18.8701Z" fill="#1814F3" stroke="#F5F7FB" stroke-width="0.3"/>
</svg>
