<svg width="44" height="44" viewBox="0 0 44 44" fill="none" xmlns="http://www.w3.org/2000/svg">
<path fill-rule="evenodd" clip-rule="evenodd" d="M22.125 9C22.3184 9 22.5039 9.07682 22.6406 9.21357C22.7773 9.35031 22.8542 9.53578 22.8542 9.72917V9.77875C24.8944 9.99167 26.4511 10.8689 27.4647 11.9852C28.1618 12.753 28.6233 13.6681 28.7684 14.5606L28.8472 14.6211C29.6668 15.2562 30.2683 16.0263 30.1254 16.9093C29.9876 17.7624 29.2169 18.2816 28.4994 18.5987C28.318 18.679 28.1331 18.751 27.9452 18.8146C27.954 18.9444 27.9583 19.0756 27.9583 19.2083C27.958 19.9907 27.8002 20.7651 27.4945 21.4853C27.1887 22.2054 26.7412 22.8568 26.1786 23.4004C25.616 23.9441 24.9497 24.3691 24.2195 24.65C23.4892 24.9309 22.71 25.0621 21.928 25.0357C21.1461 25.0093 20.3774 24.8258 19.6678 24.4962C18.9582 24.1667 18.3222 23.6977 17.7975 23.1173C17.2729 22.5368 16.8703 21.8568 16.6139 21.1176C16.3575 20.3784 16.2523 19.5952 16.3048 18.8146C16.1169 18.751 15.932 18.679 15.7506 18.5987C15.0331 18.2816 14.2624 17.7624 14.1246 16.9093C13.9817 16.0263 14.5832 15.2562 15.4028 14.6211L15.4954 14.5497C15.5141 14.4336 15.5374 14.3183 15.5654 14.2041C15.7577 13.4458 16.1083 12.7368 16.5943 12.1238C17.5714 10.8783 19.1704 9.87208 21.3958 9.74375V9.72917C21.3958 9.53578 21.4727 9.35031 21.6094 9.21357C21.7461 9.07682 21.9316 9 22.125 9ZM27.7104 16.6125C27.8596 16.6665 28.0223 16.6704 28.1739 16.6235C28.3255 16.5767 28.4577 16.4817 28.5504 16.3529C28.6941 16.5534 28.689 16.6599 28.686 16.6767C28.6766 16.735 28.565 16.9756 27.9095 17.2658C27.1446 17.6042 25.994 17.8492 24.6742 17.9877C24.6428 17.3327 24.3606 16.7149 23.8859 16.2625C23.4113 15.81 22.7807 15.5576 22.125 15.5576C21.4693 15.5576 20.8387 15.81 20.3641 16.2625C19.8894 16.7149 19.6072 17.3327 19.5758 17.9877C18.256 17.8492 17.1054 17.6042 16.3405 17.2658C15.685 16.9756 15.5734 16.735 15.564 16.6767C15.561 16.6599 15.5559 16.5542 15.6996 16.3529C15.8025 16.4964 15.954 16.5977 16.126 16.6379C16.2979 16.6781 16.4786 16.6546 16.6345 16.5716C16.7904 16.4887 16.9109 16.352 16.9737 16.1869C17.0364 16.0218 17.0371 15.8396 16.9756 15.6741C16.8881 15.4378 16.8611 15.0462 16.9822 14.549C17.1254 13.993 17.3843 13.4734 17.742 13.0243L17.75 13.0141V14.4688C17.75 14.6621 17.8268 14.8476 17.9636 14.9843C18.1003 15.1211 18.2858 15.1979 18.4792 15.1979C18.6726 15.1979 18.858 15.1211 18.9948 14.9843C19.1315 14.8476 19.2083 14.6621 19.2083 14.4688V11.8044C19.8077 11.4872 20.5332 11.2655 21.3958 11.2043V13.0104C21.3958 13.2038 21.4727 13.3893 21.6094 13.526C21.7461 13.6628 21.9316 13.7396 22.125 13.7396C22.3184 13.7396 22.5039 13.6628 22.6406 13.526C22.7773 13.3893 22.8542 13.2038 22.8542 13.0104V11.2466C23.7073 11.3538 24.435 11.598 25.0417 11.9247V14.4688C25.0417 14.6621 25.1185 14.8476 25.2552 14.9843C25.392 15.1211 25.5774 15.1979 25.7708 15.1979C25.9642 15.1979 26.1497 15.1211 26.2864 14.9843C26.4232 14.8476 26.5 14.6621 26.5 14.4688V13.0972C27.3138 14.0648 27.4858 15.0885 27.2729 15.6792C27.2072 15.861 27.2164 16.0614 27.2985 16.2364C27.3805 16.4114 27.5287 16.5467 27.7104 16.6125ZM20.278 19.8755C19.4342 19.822 18.5945 19.716 17.7639 19.5583C17.8513 20.6549 18.3487 21.6784 19.157 22.4247C19.9652 23.171 21.0249 23.5854 22.125 23.5854C23.2251 23.5854 24.2848 23.171 25.093 22.4247C25.9013 21.6784 26.3987 20.6549 26.4861 19.5583C25.7132 19.71 24.8572 19.815 23.972 19.8755C23.7337 20.1255 23.4471 20.3245 23.1296 20.4605C22.8121 20.5965 22.4704 20.6666 22.125 20.6667C21.7796 20.6666 21.4379 20.5965 21.1204 20.4605C20.8029 20.3245 20.5163 20.1255 20.278 19.8755ZM23.2188 18.1146C23.2188 18.4047 23.1035 18.6829 22.8984 18.888C22.6933 19.0931 22.4151 19.2083 22.125 19.2083C21.8349 19.2083 21.5567 19.0931 21.3516 18.888C21.1465 18.6829 21.0313 18.4047 21.0313 18.1146C21.0313 17.8245 21.1465 17.5463 21.3516 17.3412C21.5567 17.1361 21.8349 17.0208 22.125 17.0208C22.4151 17.0208 22.6933 17.1361 22.8984 17.3412C23.1035 17.5463 23.2188 17.8245 23.2188 18.1146Z" fill="#6830CD"/>
<path d="M22.1253 33.0612C22.5121 33.0612 22.883 32.9076 23.1565 32.6341C23.43 32.3606 23.5837 31.9896 23.5837 31.6029C23.5837 31.2161 23.43 30.8452 23.1565 30.5717C22.883 30.2982 22.5121 30.1445 22.1253 30.1445C21.7386 30.1445 21.3676 30.2982 21.0941 30.5717C20.8206 30.8452 20.667 31.2161 20.667 31.6029C20.667 31.9896 20.8206 32.3606 21.0941 32.6341C21.3676 32.9076 21.7386 33.0612 22.1253 33.0612Z" fill="#6830CD"/>
<path fill-rule="evenodd" clip-rule="evenodd" d="M18.8685 25.332L21.3958 27.2279H22.8542L25.3815 25.332C29.8257 26.0437 35.25 28.0227 35.25 30.8737V35.2487H9V30.8737C9 28.0227 14.4243 26.0437 18.8685 25.332ZM23.3405 28.6862L25.7541 26.8757C26.4854 27.0098 27.2299 27.1783 27.9583 27.3759V33.7904H29.4167V27.8221C29.9271 27.9971 30.4164 28.1874 30.875 28.3923V33.7904H13.375V28.3923C13.8336 28.1882 14.3229 27.9971 14.8333 27.8221V33.7904H16.2917V27.3759C17.0201 27.1783 17.7646 27.0098 18.4959 26.8757L20.9095 28.6862H23.3405ZM33.2849 29.9185C33.6961 30.3443 33.7917 30.6586 33.7917 30.8737V33.7904H32.3333V29.1645C32.7271 29.4168 33.045 29.6706 33.2849 29.9192M10.9651 29.9192C11.2057 29.6713 11.5236 29.4176 11.9167 29.1653V33.7904H10.4583V30.8737C10.4583 30.6586 10.5531 30.3443 10.9651 29.9185" fill="#6830CD"/>
</svg>
