<svg width="45" height="45" viewBox="0 0 45 45" fill="none" xmlns="http://www.w3.org/2000/svg">
<path d="M26.0313 12.2266V13.8203C26.0313 15.3227 26.0312 16.0739 26.4987 16.5403C26.9641 17.0078 27.7153 17.0078 29.2188 17.0078H30.8125" stroke="#219090" stroke-width="1.5" stroke-linecap="round" stroke-linejoin="round"/>
<path d="M18.5938 21.2578H27.0938M18.5938 24.4453H27.0938M18.5938 27.6328H23.0244M14.3438 26.5703V18.0703C14.3438 15.0656 14.3438 13.5621 15.2777 12.6292C16.2106 11.6953 17.714 11.6953 20.7188 11.6953H25.1515C25.585 11.6953 25.8028 11.6953 25.9983 11.7761C26.1927 11.8568 26.3468 12.0098 26.6539 12.3179L30.7211 16.3852C31.0292 16.6933 31.1822 16.8463 31.263 17.0418C31.3437 17.2362 31.3438 17.4541 31.3438 17.8876V26.5703C31.3438 29.5751 31.3438 31.0785 30.4098 32.0114C29.4769 32.9453 27.9735 32.9453 24.9688 32.9453H20.7188C17.714 32.9453 16.2106 32.9453 15.2777 32.0114C14.3438 31.0785 14.3438 29.5751 14.3438 26.5703Z" stroke="#219090" stroke-width="1.5" stroke-linecap="round" stroke-linejoin="round"/>
</svg>
