<svg width="44" height="45" viewBox="0 0 44 45" fill="none" xmlns="http://www.w3.org/2000/svg">
<path d="M15.9917 19.3209L21.7156 14.203C23.2708 12.8147 24.0472 12.1211 24.9916 12.1211C25.936 12.1211 26.7136 12.8147 28.2676 14.203L33.9915 19.3209M17.7917 18.121V32.5206M32.1915 32.5206V18.121" stroke="#219090" stroke-width="1.5" stroke-linecap="round" stroke-linejoin="round"/>
<path d="M11.7917 25.3194C12.7858 25.3194 13.5917 24.2449 13.5917 22.9195C13.5917 21.594 12.7858 20.5195 11.7917 20.5195C10.7976 20.5195 9.9917 21.594 9.9917 22.9195C9.9917 24.2449 10.7976 25.3194 11.7917 25.3194Z" stroke="#219090" stroke-width="1.5" stroke-linecap="round" stroke-linejoin="round"/>
<path d="M11.7917 25.3209V32.5208M9.9917 32.5208H33.9914M21.9916 32.5208V27.7209C21.9916 26.5893 21.9916 26.0241 22.3432 25.6725C22.6948 25.3209 23.26 25.3209 24.3915 25.3209H25.5915C26.7231 25.3209 27.2883 25.3209 27.6399 25.6725C27.9915 26.0241 27.9915 26.5893 27.9915 27.7209V32.5208M23.7916 21.721H26.1915M23.7916 18.1211H26.1915" stroke="#219090" stroke-width="1.5" stroke-linecap="round" stroke-linejoin="round"/>
</svg>
