<svg width="16" height="16" viewBox="0 0 16 16" fill="none" xmlns="http://www.w3.org/2000/svg">
<g clip-path="url(#clip0_1180_83938)">
<path d="M6.79914 8.0026C8.64007 8.0026 10.1325 6.51022 10.1325 4.66927C10.1325 2.82832 8.64007 1.33594 6.79914 1.33594C4.9582 1.33594 3.46582 2.82832 3.46582 4.66927C3.46582 6.51022 4.9582 8.0026 6.79914 8.0026Z" stroke="white" stroke-width="1.5" stroke-linecap="round" stroke-linejoin="round"/>
<path d="M0.666992 14.6667C1.04725 13.3555 1.83229 12.1981 2.90991 11.3599C3.98753 10.5218 5.30256 10.0458 6.66699 10C9.41366 10 11.7537 11.94 12.667 14.6667" stroke="white" stroke-width="1.5" stroke-linecap="round" stroke-linejoin="round"/>
<path d="M12.7693 2.96094C13.2771 3.22129 13.688 3.63768 13.9416 4.14893C14.1952 4.66017 14.2782 5.23925 14.1782 5.80111C14.0782 6.36296 13.8006 6.8779 13.3862 7.2703C12.9718 7.66263 12.4424 7.9117 11.876 7.9809" stroke="white" stroke-width="1.5" stroke-linecap="round" stroke-linejoin="round"/>
<path d="M12.4355 9.71094C13.3249 9.93754 14.1406 10.3897 14.8039 11.0239C15.4673 11.6581 15.9558 12.4527 16.2222 13.3309" stroke="white" stroke-width="1.5" stroke-linecap="round" stroke-linejoin="round"/>
</g>
<defs>
<clipPath id="clip0_1180_83938">
<rect width="16" height="16" fill="white"/>
</clipPath>
</defs>
</svg>
