<svg width="20" height="21" viewBox="0 0 20 21" fill="none" xmlns="http://www.w3.org/2000/svg">
<rect y="0.429688" width="20" height="20" rx="4" fill="#DEF0F0"/>
<path d="M10 15.9297C8.46458 15.9297 7.16406 15.3969 6.09844 14.3312C5.03281 13.2656 4.5 11.9651 4.5 10.4297C4.5 8.89427 5.03281 7.59375 6.09844 6.52812C7.16406 5.4625 8.46458 4.92969 10 4.92969C10.7906 4.92969 11.5469 5.09308 12.2688 5.41987C12.9906 5.74621 13.6094 6.21302 14.125 6.82031V5.61719C14.125 5.4224 14.191 5.259 14.323 5.127C14.4545 4.99546 14.6177 4.92969 14.8125 4.92969C15.0073 4.92969 15.1705 4.99546 15.302 5.127C15.434 5.259 15.5 5.4224 15.5 5.61719V9.05469C15.5 9.24948 15.434 9.41265 15.302 9.54419C15.1705 9.67619 15.0073 9.74219 14.8125 9.74219H11.375C11.1802 9.74219 11.017 9.67619 10.8855 9.54419C10.7535 9.41265 10.6875 9.24948 10.6875 9.05469C10.6875 8.8599 10.7535 8.6965 10.8855 8.5645C11.017 8.43296 11.1802 8.36719 11.375 8.36719H13.575C13.2083 7.72552 12.7071 7.22135 12.0714 6.85469C11.4353 6.48802 10.7448 6.30469 10 6.30469C8.85417 6.30469 7.88021 6.70573 7.07812 7.50781C6.27604 8.3099 5.875 9.28385 5.875 10.4297C5.875 11.5755 6.27604 12.5495 7.07812 13.3516C7.88021 14.1536 8.85417 14.5547 10 14.5547C10.7906 14.5547 11.5212 14.3455 12.1917 13.927C12.8618 13.509 13.363 12.9505 13.6953 12.2516C13.7526 12.1255 13.8472 12.0196 13.9792 11.9339C14.1108 11.8478 14.2453 11.8047 14.3828 11.8047C14.6464 11.8047 14.8441 11.8964 14.9761 12.0797C15.1077 12.263 15.1219 12.4693 15.0187 12.6984C14.5833 13.6724 13.913 14.4543 13.0078 15.0442C12.1026 15.6345 11.1 15.9297 10 15.9297Z" fill="#007DF1"/>
</svg>
