<svg width="39" height="39" viewBox="0 0 39 39" fill="none" xmlns="http://www.w3.org/2000/svg">
<path d="M16.625 18.7812H15.9062V20.2188H16.625H22.375H23.0938V18.7812H22.375H16.625Z" fill="#577EE8"/>
<path d="M16.625 21.6562H15.9062V23.0938H16.625H18.7812H19.5V21.6562H18.7812H16.625Z" fill="#577EE8"/>
<path d="M22.6697 10.1562H11.5938V26.6875C11.5938 27.2594 11.8209 27.8078 12.2253 28.2122C12.6297 28.6166 13.1781 28.8438 13.75 28.8438H25.25C25.8219 28.8438 26.3703 28.6166 26.7747 28.2122C27.1791 27.8078 27.4062 27.2594 27.4062 26.6875V14.8928L22.6697 10.1562ZM22.375 11.8884L25.6741 15.1875H23.0938C22.9031 15.1875 22.7203 15.1118 22.5855 14.977C22.4507 14.8422 22.375 14.6594 22.375 14.4688V11.8884ZM25.25 27.4062H13.75C13.5594 27.4062 13.3766 27.3305 13.2418 27.1957C13.107 27.0609 13.0312 26.8781 13.0312 26.6875V11.5938H20.9375V14.4688C20.9375 15.0406 21.1647 15.5891 21.5691 15.9934C21.9734 16.3978 22.5219 16.625 23.0938 16.625H25.9688V26.6875C25.9688 26.8781 25.893 27.0609 25.7582 27.1957C25.6234 27.3305 25.4406 27.4062 25.25 27.4062Z" fill="#577EE8"/>
</svg>
