<svg width="39" height="39" viewBox="0 0 39 39" fill="none" xmlns="http://www.w3.org/2000/svg">
<g clip-path="url(#clip0_1180_102039)">
<path d="M19.5 18.7978C20.5729 18.7978 21.4457 17.9249 21.4457 16.852C21.4457 15.7791 20.5728 14.9062 19.5 14.9062C18.4271 14.9062 17.5542 15.7791 17.5542 16.852C17.5542 17.9249 18.427 18.7978 19.5 18.7978ZM19.5 16.076C19.9279 16.076 20.2759 16.4241 20.2759 16.852C20.2759 17.2798 19.9278 17.628 19.5 17.628C19.0721 17.628 18.724 17.2798 18.724 16.852C18.724 16.4241 19.0721 16.076 19.5 16.076Z" fill="#E08F6D"/>
<path d="M19.5 19.8906C17.6767 19.8906 16.1934 21.374 16.1934 23.1973V23.7822H22.8067V23.1973C22.8067 21.374 21.3233 19.8906 19.5 19.8906ZM17.4445 22.6124C17.6995 21.7176 18.5245 21.0604 19.5 21.0604C20.4756 21.0604 21.3005 21.7176 21.5556 22.6124H17.4445Z" fill="#E08F6D"/>
<path d="M28.1781 13.3086C27.6981 13.388 27.2095 13.4282 26.7257 13.4282C24.1963 13.4283 21.7799 12.366 19.9214 10.4372L19.5002 10L19.079 10.4371C17.2207 12.3659 14.8042 13.4281 12.2746 13.4282C11.791 13.4282 11.3024 13.388 10.8222 13.3086L10.1143 13.1916L10.1424 13.9086C10.253 16.7246 10.7978 19.2651 11.7614 21.4594C12.5382 23.2284 13.5868 24.7766 14.8782 26.0611C17.0912 28.2625 19.2423 28.923 19.3328 28.95L19.5002 29L19.6676 28.95C19.7581 28.923 21.9092 28.2625 24.1223 26.0611C25.4135 24.7766 26.4621 23.2284 27.239 21.4594C28.2027 19.2651 28.7473 16.7246 28.858 13.9086L28.8862 13.1916L28.1781 13.3086ZM23.3433 25.1857C21.6734 26.8639 20.0199 27.5752 19.4991 27.7706C18.9843 27.5792 17.3672 26.8871 15.7031 25.2317C13.903 23.4412 11.725 20.1531 11.3481 14.555C11.6569 14.5836 11.9667 14.598 12.2747 14.598C13.7042 14.5979 15.1053 14.2969 16.4392 13.7033C17.5608 13.2041 18.5882 12.5195 19.5002 11.6644C20.4122 12.5197 21.4395 13.2042 22.5611 13.7034C23.895 14.297 25.2961 14.598 26.7257 14.5979C27.0337 14.5979 27.3434 14.5835 27.6521 14.5549C27.3525 18.9818 25.8697 22.6467 23.3433 25.1857Z" fill="#E08F6D"/>
</g>
<defs>
<clipPath id="clip0_1180_102039">
<rect width="19" height="19" fill="white" transform="translate(10 10)"/>
</clipPath>
</defs>
</svg>
