<svg width="39" height="39" viewBox="0 0 39 39" fill="none" xmlns="http://www.w3.org/2000/svg">
<path d="M12.9156 21.7979C12.7698 21.4291 12.6642 21.0566 12.5989 20.6804C12.533 20.3048 12.5 19.9255 12.5 19.5426C12.5 17.6418 13.1781 16.0248 14.5344 14.6915C15.8906 13.3582 17.5458 12.6915 19.5 12.6915H19.6531L18.8656 11.9255C18.7052 11.7695 18.625 11.5709 18.625 11.3298C18.625 11.0887 18.7052 10.8901 18.8656 10.734C19.026 10.578 19.2302 10.5 19.4781 10.5C19.726 10.5 19.9302 10.578 20.0906 10.734L22.3656 12.9468C22.4531 13.0319 22.5153 13.1241 22.552 13.2234C22.5882 13.3227 22.6062 13.4291 22.6062 13.5426C22.6062 13.656 22.5882 13.7624 22.552 13.8617C22.5153 13.961 22.4531 14.0532 22.3656 14.1383L20.0906 16.3511C19.9302 16.5071 19.726 16.5851 19.4781 16.5851C19.2302 16.5851 19.026 16.5071 18.8656 16.3511C18.7052 16.195 18.625 15.9965 18.625 15.7553C18.625 15.5142 18.7052 15.3156 18.8656 15.1596L19.6531 14.3936H19.5C18.0417 14.3936 16.8021 14.8935 15.7812 15.8932C14.7604 16.8935 14.25 18.1099 14.25 19.5426C14.25 19.8262 14.2757 20.1028 14.327 20.3723C14.3777 20.6418 14.4542 20.9113 14.5562 21.1809C14.6146 21.3227 14.6292 21.475 14.6 21.6379C14.5708 21.8013 14.4979 21.9397 14.3813 22.0532C14.1188 22.3085 13.8382 22.4115 13.5395 22.3621C13.2403 22.3122 13.0323 22.1241 12.9156 21.7979ZM18.9094 28.266L16.6344 26.0532C16.5469 25.9681 16.485 25.8759 16.4489 25.7766C16.4121 25.6773 16.3937 25.5709 16.3937 25.4574C16.3937 25.344 16.4121 25.2376 16.4489 25.1383C16.485 25.039 16.5469 24.9468 16.6344 24.8617L18.9094 22.6489C19.0698 22.4929 19.274 22.4149 19.5219 22.4149C19.7698 22.4149 19.974 22.4929 20.1344 22.6489C20.2948 22.805 20.375 23.0035 20.375 23.2447C20.375 23.4858 20.2948 23.6844 20.1344 23.8404L19.3469 24.6064H19.5C20.9583 24.6064 22.1979 24.1065 23.2188 23.1068C24.2396 22.1065 24.75 20.8901 24.75 19.4574C24.75 19.1738 24.7246 18.8972 24.6739 18.6277C24.6225 18.3582 24.5458 18.0887 24.4437 17.8191C24.3854 17.6773 24.3708 17.5247 24.4 17.3613C24.4292 17.1984 24.5021 17.0603 24.6188 16.9468C24.8813 16.6915 25.1618 16.5885 25.4605 16.6379C25.7598 16.6878 25.9677 16.8759 26.0844 17.2021C26.2302 17.5709 26.3361 17.9431 26.402 18.3187C26.4673 18.6949 26.5 19.0745 26.5 19.4574C26.5 21.3582 25.8219 22.9752 24.4656 24.3085C23.1094 25.6418 21.4542 26.3085 19.5 26.3085H19.3469L20.1344 27.0745C20.2948 27.2305 20.375 27.4291 20.375 27.6702C20.375 27.9113 20.2948 28.1099 20.1344 28.266C19.974 28.422 19.7698 28.5 19.5219 28.5C19.274 28.5 19.0698 28.422 18.9094 28.266Z" fill="#35AFAB"/>
</svg>
