<svg width="39" height="39" viewBox="0 0 39 39" fill="none" xmlns="http://www.w3.org/2000/svg">
<g clip-path="url(#clip0_1180_102065)">
<path d="M19.5 27.7499C21.1317 27.7499 22.7267 27.2661 24.0835 26.3595C25.4402 25.453 26.4976 24.1645 27.122 22.6571C27.7464 21.1496 27.9098 19.4908 27.5915 17.8904C27.2731 16.2901 26.4874 14.8201 25.3336 13.6663C24.1798 12.5125 22.7098 11.7268 21.1095 11.4084C19.5091 11.0901 17.8503 11.2535 16.3429 11.8779C14.8354 12.5023 13.5469 13.5598 12.6404 14.9165C11.7339 16.2732 11.25 17.8682 11.25 19.4999C11.245 20.5847 11.455 21.6597 11.8679 22.6629C12.2807 23.6661 12.8882 24.5775 13.6553 25.3446C14.4224 26.1117 15.3338 26.7192 16.337 27.132C17.3402 27.5449 18.4152 27.7549 19.5 27.7499ZM26.2125 20.2874C26.0737 21.4836 25.6173 22.6209 24.8908 23.5814C24.1643 24.5418 23.1941 25.2904 22.0808 25.7495C20.9675 26.2086 19.7516 26.3615 18.5593 26.1923C17.367 26.0231 16.2417 25.5381 15.3 24.7874L24.7875 15.2999C25.9041 16.7082 26.4165 18.5018 26.2125 20.2874ZM18.75 12.7874C20.5403 12.598 22.333 13.1237 23.7375 14.2499L14.25 23.6999C13.6813 23.0108 13.2585 22.2135 13.0071 21.3562C12.7557 20.4989 12.681 19.5995 12.7875 18.7124C12.9713 17.1986 13.6595 15.7908 14.7412 14.7159C15.8229 13.641 17.235 12.9616 18.75 12.7874Z" fill="#FB4949"/>
</g>
<defs>
<clipPath id="clip0_1180_102065">
<rect width="18" height="18" fill="white" transform="matrix(-1 0 0 -1 28.5 28.5)"/>
</clipPath>
</defs>
</svg>
