<svg width="36" height="35" viewBox="0 0 36 35" fill="none" xmlns="http://www.w3.org/2000/svg">
<path d="M8 25.5H10M10 25.5H15M10 25.5V12.7002C10 11.5801 10 11.0196 10.218 10.5918C10.4097 10.2155 10.7155 9.90973 11.0918 9.71799C11.5196 9.5 12.0801 9.5 13.2002 9.5H14.8002C15.9203 9.5 16.4796 9.5 16.9074 9.71799C17.2837 9.90973 17.5905 10.2155 17.7822 10.5918C18 11.0192 18 11.579 18 12.6969V15.5002M15 25.5H26M15 25.5V19.8682C15 19.3428 15 19.08 15.063 18.835C15.1188 18.6178 15.2107 18.4118 15.335 18.2252C15.475 18.0147 15.6711 17.8384 16.0615 17.4877L18.3631 15.42C19.1178 14.7419 19.4955 14.4026 19.9225 14.2739C20.2989 14.1604 20.7007 14.1604 21.0771 14.2739C21.5045 14.4027 21.8827 14.7422 22.6387 15.4214L24.9387 17.4877C25.3295 17.8388 25.5245 18.0146 25.6647 18.2252C25.7889 18.4118 25.8807 18.6178 25.9365 18.835C25.9995 19.08 26 19.3428 26 19.8682V25.5M26 25.5H28" stroke="white" stroke-width="1.5" stroke-linecap="round" stroke-linejoin="round"/>
</svg>
