<svg width="34" height="34" viewBox="0 0 34 34" fill="none" xmlns="http://www.w3.org/2000/svg">
<path fill-rule="evenodd" clip-rule="evenodd" d="M10.7341 8.33602L10.667 8.33598C10.3624 8.33569 10.0998 8.33544 9.86717 8.39129C9.13588 8.56685 8.56489 9.13783 8.38933 9.86913C8.33348 10.1017 8.33373 10.3643 8.33403 10.6689L8.33407 10.736V13.936L8.33403 14.0031C8.33373 14.3077 8.33348 14.5703 8.38933 14.8029C8.56489 15.5342 9.13588 16.1052 9.86717 16.2808C10.0998 16.3366 10.3624 16.3364 10.667 16.3361L10.7341 16.336H13.9341L14.0012 16.3361C14.3058 16.3364 14.5684 16.3366 14.801 16.2808C15.5323 16.1052 16.1032 15.5342 16.2788 14.8029C16.3347 14.5703 16.3344 14.3077 16.3341 14.0031L16.3341 13.936V10.736L16.3341 10.6689C16.3344 10.3643 16.3347 10.1017 16.2788 9.86913C16.1032 9.13783 15.5323 8.56685 14.801 8.39129C14.5684 8.33544 14.3058 8.33569 14.0012 8.33598L13.9341 8.33602H10.7341ZM10.1784 9.68778C10.2358 9.67399 10.3237 9.66935 10.7341 9.66935H13.9341C14.3445 9.66935 14.4323 9.67399 14.4897 9.68778C14.7335 9.7463 14.9238 9.93662 14.9823 10.1804C14.9961 10.2378 15.0007 10.3256 15.0007 10.736V13.936C15.0007 14.3464 14.9961 14.4343 14.9823 14.4916C14.9238 14.7354 14.7335 14.9257 14.4897 14.9843C14.4323 14.998 14.3445 15.0027 13.9341 15.0027H10.7341C10.3237 15.0027 10.2358 14.998 10.1784 14.9843C9.93467 14.9257 9.74435 14.7354 9.68583 14.4916C9.67204 14.4343 9.6674 14.3464 9.6674 13.936V10.736C9.6674 10.3256 9.67204 10.2378 9.68583 10.1804C9.74435 9.93662 9.93467 9.7463 10.1784 9.68778ZM20.0674 8.33602L20.0003 8.33598C19.6957 8.33569 19.4331 8.33544 19.2005 8.39129C18.4692 8.56685 17.8982 9.13783 17.7227 9.86913C17.6668 10.1017 17.6671 10.3643 17.6674 10.6689L17.6674 10.736V13.936L17.6674 14.0031C17.6671 14.3077 17.6668 14.5703 17.7227 14.8029C17.8982 15.5342 18.4692 16.1052 19.2005 16.2808C19.4331 16.3366 19.6957 16.3364 20.0003 16.3361L20.0674 16.336H23.2674L23.3345 16.3361C23.6391 16.3364 23.9017 16.3366 24.1343 16.2808C24.8655 16.1052 25.4366 15.5342 25.6122 14.8029C25.6679 14.5703 25.6678 14.3077 25.6674 14.0031V13.936V10.736V10.6689C25.6678 10.3643 25.6679 10.1017 25.6122 9.86913C25.4366 9.13783 24.8655 8.56685 24.1343 8.39129C23.9017 8.33544 23.6391 8.33569 23.3345 8.33598L23.2674 8.33602H20.0674ZM19.5118 9.68778C19.5692 9.67399 19.657 9.66935 20.0674 9.66935H23.2674C23.6778 9.66935 23.7657 9.67399 23.823 9.68778C24.0667 9.7463 24.2571 9.93662 24.3157 10.1804C24.3294 10.2378 24.3341 10.3256 24.3341 10.736V13.936C24.3341 14.3464 24.3294 14.4343 24.3157 14.4916C24.2571 14.7354 24.0667 14.9257 23.823 14.9843C23.7657 14.998 23.6778 15.0027 23.2674 15.0027H20.0674C19.657 15.0027 19.5692 14.998 19.5118 14.9843C19.268 14.9257 19.0777 14.7354 19.0192 14.4916C19.0054 14.4343 19.0007 14.3464 19.0007 13.936V10.736C19.0007 10.3256 19.0054 10.2378 19.0192 10.1804C19.0777 9.93662 19.268 9.7463 19.5118 9.68778ZM10.667 17.6693L10.7341 17.6694H13.9341L14.0012 17.6693C14.3058 17.669 14.5684 17.6688 14.801 17.7246C15.5323 17.9002 16.1032 18.4712 16.2788 19.2025C16.3347 19.4351 16.3344 19.6976 16.3341 20.0022L16.3341 20.0694V23.2694L16.3341 23.3364C16.3344 23.6411 16.3347 23.9036 16.2788 24.1363C16.1032 24.8675 15.5323 25.4386 14.801 25.6142C14.5684 25.6699 14.3058 25.6698 14.0012 25.6694H13.9341H10.7341H10.667C10.3624 25.6698 10.0998 25.6699 9.86717 25.6142C9.13588 25.4386 8.56489 24.8675 8.38933 24.1363C8.33348 23.9036 8.33373 23.6411 8.33403 23.3364L8.33407 23.2694V20.0694L8.33403 20.0022C8.33373 19.6976 8.33348 19.4351 8.38933 19.2025C8.56489 18.4712 9.13588 17.9002 9.86717 17.7246C10.0998 17.6688 10.3624 17.669 10.667 17.6693ZM10.7341 19.0027C10.3237 19.0027 10.2358 19.0073 10.1784 19.0211C9.93467 19.0796 9.74435 19.27 9.68583 19.5137C9.67204 19.5711 9.6674 19.659 9.6674 20.0694V23.2694C9.6674 23.6798 9.67204 23.7676 9.68583 23.825C9.74435 24.0687 9.93467 24.2591 10.1784 24.3176C10.2358 24.3314 10.3237 24.336 10.7341 24.336H13.9341C14.3445 24.336 14.4323 24.3314 14.4897 24.3176C14.7335 24.2591 14.9238 24.0687 14.9823 23.825C14.9961 23.7676 15.0007 23.6798 15.0007 23.2694V20.0694C15.0007 19.659 14.9961 19.5711 14.9823 19.5137C14.9238 19.27 14.7335 19.0796 14.4897 19.0211C14.4323 19.0073 14.3445 19.0027 13.9341 19.0027H10.7341ZM20.0674 17.6694L20.0003 17.6693C19.6957 17.669 19.4331 17.6688 19.2005 17.7246C18.4692 17.9002 17.8982 18.4712 17.7227 19.2025C17.6668 19.4351 17.6671 19.6976 17.6674 20.0022L17.6674 20.0694V23.2694L17.6674 23.3364C17.6671 23.6411 17.6668 23.9036 17.7227 24.1363C17.8982 24.8675 18.4692 25.4386 19.2005 25.6142C19.4331 25.6699 19.6957 25.6698 20.0003 25.6694H20.0674H23.2674H23.3345C23.6391 25.6698 23.9017 25.6699 24.1343 25.6142C24.8655 25.4386 25.4366 24.8675 25.6122 24.1363C25.6679 23.9036 25.6678 23.6411 25.6674 23.3364V23.2694V20.0694V20.0022C25.6678 19.6976 25.6679 19.4351 25.6122 19.2025C25.4366 18.4712 24.8655 17.9002 24.1343 17.7246C23.9017 17.6688 23.6391 17.669 23.3345 17.6693L23.2674 17.6694H20.0674ZM19.5118 19.0211C19.5692 19.0073 19.657 19.0027 20.0674 19.0027H23.2674C23.6778 19.0027 23.7657 19.0073 23.823 19.0211C24.0667 19.0796 24.2571 19.27 24.3157 19.5137C24.3294 19.5711 24.3341 19.659 24.3341 20.0694V23.2694C24.3341 23.6798 24.3294 23.7676 24.3157 23.825C24.2571 24.0687 24.0667 24.2591 23.823 24.3176C23.7657 24.3314 23.6778 24.336 23.2674 24.336H20.0674C19.657 24.336 19.5692 24.3314 19.5118 24.3176C19.268 24.2591 19.0777 24.0687 19.0192 23.825C19.0054 23.7676 19.0007 23.6798 19.0007 23.2694V20.0694C19.0007 19.659 19.0054 19.5711 19.0192 19.5137C19.0777 19.27 19.268 19.0796 19.5118 19.0211Z" fill="white"/>
</svg>
