<svg width="34" height="34" viewBox="0 0 34 34" fill="none" xmlns="http://www.w3.org/2000/svg">
<path d="M17 15.125V24.5M9 19.8125H25M9 15.125H25M11.8444 24.5H22.1556C23.1512 24.5 23.6491 24.5 24.0293 24.2956C24.3638 24.1159 24.6358 23.829 24.8062 23.4763C25 23.0752 25 22.5501 25 21.5V12.5C25 11.4499 25 10.9249 24.8062 10.5238C24.6358 10.171 24.3638 9.88412 24.0293 9.70437C23.6491 9.5 23.1512 9.5 22.1556 9.5H11.8444C10.8488 9.5 10.351 9.5 9.97068 9.70437C9.63617 9.88412 9.3642 10.171 9.19377 10.5238C9 10.9249 9 11.4499 9 12.5V21.5C9 22.5501 9 23.0752 9.19377 23.4763C9.3642 23.829 9.63617 24.1159 9.97068 24.2956C10.351 24.5 10.8488 24.5 11.8444 24.5Z" stroke="white" stroke-width="1.2" stroke-linecap="round" stroke-linejoin="round"/>
</svg>
