<svg width="34" height="34" viewBox="0 0 34 34" fill="none" xmlns="http://www.w3.org/2000/svg">
<path d="M21.6 14.2535V15.225M21.6 14.2535C21.1941 14.255 20.7939 14.1573 20.4343 13.9689C20.0748 13.7804 19.7668 13.5069 19.5371 13.1723M21.6 14.2535C22.0059 14.255 22.4061 14.1573 22.7657 13.9689C23.1252 13.7804 23.4332 13.5069 23.663 13.1723M19.5371 13.1723L18.625 13.7673M19.5371 13.1723C19.2648 12.7757 19.119 12.306 19.119 11.825C19.119 11.344 19.2648 10.8743 19.5371 10.4778M23.663 13.1723L24.575 13.7673M23.663 13.1723C23.9352 12.7757 24.081 12.306 24.081 11.825C24.081 11.344 23.9352 10.8743 23.663 10.4778M21.6 9.39655C22.0059 9.395 22.4061 9.49269 22.7657 9.68114C23.1252 9.86958 23.4332 10.1431 23.663 10.4778M21.6 9.39655C21.1941 9.395 20.7939 9.49269 20.4343 9.68114C20.0748 9.86958 19.7668 10.1431 19.5371 10.4778M21.6 9.39655V8.425M23.663 10.4778L24.575 9.8819M19.5371 10.4778L18.625 9.88275M8 11.4C8 10.21 8 9.615 8.2312 9.16025C8.43497 8.7602 8.7602 8.43497 9.16025 8.2312C9.615 8 10.21 8 11.4 8C12.59 8 13.185 8 13.6398 8.2312C14.0398 8.43497 14.365 8.7602 14.5688 9.16025C14.8 9.615 14.8 10.21 14.8 11.4C14.8 12.59 14.8 13.185 14.5688 13.6398C14.365 14.0398 14.0398 14.365 13.6398 14.5688C13.185 14.8 12.59 14.8 11.4 14.8C10.21 14.8 9.615 14.8 9.16025 14.5688C8.7602 14.365 8.43497 14.0398 8.2312 13.6398C8 13.185 8 12.59 8 11.4ZM8 21.6C8 20.41 8 19.815 8.2312 19.3603C8.43511 18.9605 8.76033 18.6356 9.16025 18.4321C9.615 18.2 10.21 18.2 11.4 18.2C12.59 18.2 13.185 18.2 13.6398 18.4321C14.0397 18.6356 14.3649 18.9605 14.5688 19.3603C14.8 19.815 14.8 20.41 14.8 21.6C14.8 22.79 14.8 23.385 14.5688 23.8398C14.3649 24.2395 14.0397 24.5644 13.6398 24.7679C13.185 25 12.59 25 11.4 25C10.21 25 9.615 25 9.16025 24.7679C8.76033 24.5644 8.43511 24.2395 8.2312 23.8398C8 23.385 8 22.79 8 21.6ZM18.2 21.6C18.2 20.41 18.2 19.815 18.4321 19.3603C18.6357 18.9606 18.9606 18.6357 19.3603 18.4321C19.815 18.2 20.41 18.2 21.6 18.2C22.79 18.2 23.385 18.2 23.8398 18.4321C24.2394 18.6357 24.5643 18.9606 24.7679 19.3603C25 19.815 25 20.41 25 21.6C25 22.79 25 23.385 24.7679 23.8398C24.5643 24.2394 24.2394 24.5643 23.8398 24.7679C23.385 25 22.79 25 21.6 25C20.41 25 19.815 25 19.3603 24.7679C18.9606 24.5643 18.6357 24.2394 18.4321 23.8398C18.2 23.385 18.2 22.79 18.2 21.6Z" stroke="#646464" stroke-width="1.5" stroke-linecap="round" stroke-linejoin="round"/>
<path d="M21.6 14.2535V15.225M21.6 14.2535C21.1941 14.255 20.7939 14.1573 20.4343 13.9689C20.0748 13.7804 19.7668 13.5069 19.5371 13.1723M21.6 14.2535C22.0059 14.255 22.4061 14.1573 22.7657 13.9689C23.1252 13.7804 23.4332 13.5069 23.663 13.1723M19.5371 13.1723L18.625 13.7673M19.5371 13.1723C19.2648 12.7757 19.119 12.306 19.119 11.825C19.119 11.344 19.2648 10.8743 19.5371 10.4778M23.663 13.1723L24.575 13.7673M23.663 13.1723C23.9352 12.7757 24.081 12.306 24.081 11.825C24.081 11.344 23.9352 10.8743 23.663 10.4778M21.6 9.39655C22.0059 9.395 22.4061 9.49269 22.7657 9.68114C23.1252 9.86958 23.4332 10.1431 23.663 10.4778M21.6 9.39655C21.1941 9.395 20.7939 9.49269 20.4343 9.68114C20.0748 9.86958 19.7668 10.1431 19.5371 10.4778M21.6 9.39655V8.425M23.663 10.4778L24.575 9.8819M19.5371 10.4778L18.625 9.88275M8 11.4C8 10.21 8 9.615 8.2312 9.16025C8.43497 8.7602 8.7602 8.43497 9.16025 8.2312C9.615 8 10.21 8 11.4 8C12.59 8 13.185 8 13.6398 8.2312C14.0398 8.43497 14.365 8.7602 14.5688 9.16025C14.8 9.615 14.8 10.21 14.8 11.4C14.8 12.59 14.8 13.185 14.5688 13.6398C14.365 14.0398 14.0398 14.365 13.6398 14.5688C13.185 14.8 12.59 14.8 11.4 14.8C10.21 14.8 9.615 14.8 9.16025 14.5688C8.7602 14.365 8.43497 14.0398 8.2312 13.6398C8 13.185 8 12.59 8 11.4ZM8 21.6C8 20.41 8 19.815 8.2312 19.3603C8.43511 18.9605 8.76033 18.6356 9.16025 18.4321C9.615 18.2 10.21 18.2 11.4 18.2C12.59 18.2 13.185 18.2 13.6398 18.4321C14.0397 18.6356 14.3649 18.9605 14.5688 19.3603C14.8 19.815 14.8 20.41 14.8 21.6C14.8 22.79 14.8 23.385 14.5688 23.8398C14.3649 24.2395 14.0397 24.5644 13.6398 24.7679C13.185 25 12.59 25 11.4 25C10.21 25 9.615 25 9.16025 24.7679C8.76033 24.5644 8.43511 24.2395 8.2312 23.8398C8 23.385 8 22.79 8 21.6ZM18.2 21.6C18.2 20.41 18.2 19.815 18.4321 19.3603C18.6357 18.9606 18.9606 18.6357 19.3603 18.4321C19.815 18.2 20.41 18.2 21.6 18.2C22.79 18.2 23.385 18.2 23.8398 18.4321C24.2394 18.6357 24.5643 18.9606 24.7679 19.3603C25 19.815 25 20.41 25 21.6C25 22.79 25 23.385 24.7679 23.8398C24.5643 24.2394 24.2394 24.5643 23.8398 24.7679C23.385 25 22.79 25 21.6 25C20.41 25 19.815 25 19.3603 24.7679C18.9606 24.5643 18.6357 24.2394 18.4321 23.8398C18.2 23.385 18.2 22.79 18.2 21.6Z" stroke="white" stroke-width="1.5" stroke-linecap="round" stroke-linejoin="round"/>
</svg>
