<svg width="34" height="34" viewBox="0 0 34 34" fill="none" xmlns="http://www.w3.org/2000/svg">
<g clip-path="url(#clip0_1444_28006)">
<path d="M23.0312 8.78125C24.6708 8.78125 26 10.1104 26 11.75V18.875C26 20.5146 24.6708 21.8438 23.0312 21.8438H18.875V23.625H20.6562C20.9842 23.625 21.25 23.8908 21.25 24.2188C21.25 24.5467 20.9842 24.8125 20.6562 24.8125H12.3438C12.0158 24.8125 11.75 24.5467 11.75 24.2188C11.75 23.8908 12.0158 23.625 12.3438 23.625H14.125V21.8438H9.96875C8.3723 21.8438 7.07017 20.5836 7.00274 19.0038L7 18.875V11.75C7 10.1104 8.32915 8.78125 9.96875 8.78125H23.0312ZM17.6875 23.625V21.8438H15.3125V23.625H17.6875ZM23.0312 9.96875H9.96875C8.98499 9.96875 8.1875 10.7662 8.1875 11.75V18.875C8.1875 19.8588 8.98499 20.6562 9.96875 20.6562H23.0312C24.015 20.6562 24.8125 19.8588 24.8125 18.875V11.75C24.8125 10.7662 24.015 9.96875 23.0312 9.96875Z" fill="white"/>
</g>
<defs>
<clipPath id="clip0_1444_28006">
<rect width="19" height="19" fill="white" transform="translate(7 7)"/>
</clipPath>
</defs>
</svg>
