<svg width="34" height="34" viewBox="0 0 34 34" fill="none" xmlns="http://www.w3.org/2000/svg">
<path d="M13.2222 10.5007L25.5 10.5014M13.2222 16.5007L25.5 16.5015M13.2222 22.5007L25.5 22.5015M8.97222 10.5H8.98167M8.97222 16.5H8.98167M8.97222 22.5H8.98167M9.44444 10.5C9.44444 10.7761 9.23302 11 8.97222 11C8.71142 11 8.5 10.7761 8.5 10.5C8.5 10.2239 8.71142 10 8.97222 10C9.23302 10 9.44444 10.2239 9.44444 10.5ZM9.44444 16.5C9.44444 16.7761 9.23302 17 8.97222 17C8.71142 17 8.5 16.7761 8.5 16.5C8.5 16.2239 8.71142 16 8.97222 16C9.23302 16 9.44444 16.2239 9.44444 16.5ZM9.44444 22.5C9.44444 22.7761 9.23302 23 8.97222 23C8.71142 23 8.5 22.7761 8.5 22.5C8.5 22.2239 8.71142 22 8.97222 22C9.23302 22 9.44444 22.2239 9.44444 22.5Z" stroke="white" stroke-width="1.5" stroke-linecap="round" stroke-linejoin="round"/>
</svg>
