<svg width="34" height="34" viewBox="0 0 34 34" fill="none" xmlns="http://www.w3.org/2000/svg">
<path d="M23.2 13.9892V15.075M23.2 13.9892C22.7463 13.9909 22.2991 13.8817 21.8972 13.6711C21.4954 13.4605 21.1511 13.1548 20.8943 12.7807M23.2 13.9892C23.6537 13.9909 24.1009 13.8817 24.5028 13.6711C24.9046 13.4605 25.2489 13.1548 25.5056 12.7807M20.8943 12.7807L19.875 13.4457M20.8943 12.7807C20.59 12.3376 20.4271 11.8126 20.4271 11.275C20.4271 10.7374 20.59 10.2124 20.8943 9.76925M25.5056 12.7807L26.525 13.4457M25.5056 12.7807C25.81 12.3376 25.9729 11.8126 25.9729 11.275C25.9729 10.7374 25.81 10.2124 25.5056 9.76925M23.2 8.56085C23.6537 8.55911 24.1009 8.6683 24.5028 8.87892C24.9046 9.08953 25.2489 9.39518 25.5056 9.76925M23.2 8.56085C22.7463 8.55911 22.2991 8.6683 21.8972 8.87892C21.4954 9.08953 21.1511 9.39518 20.8943 9.76925M23.2 8.56085V7.475M25.5056 9.76925L26.525 9.1033M20.8943 9.76925L19.875 9.10425M8 10.8C8 9.47 8 8.805 8.2584 8.29675C8.48614 7.84964 8.84964 7.48614 9.29675 7.2584C9.805 7 10.47 7 11.8 7C13.13 7 13.795 7 14.3033 7.2584C14.7504 7.48614 15.1139 7.84964 15.3416 8.29675C15.6 8.805 15.6 9.47 15.6 10.8C15.6 12.13 15.6 12.795 15.3416 13.3033C15.1139 13.7504 14.7504 14.1139 14.3033 14.3416C13.795 14.6 13.13 14.6 11.8 14.6C10.47 14.6 9.805 14.6 9.29675 14.3416C8.84964 14.1139 8.48614 13.7504 8.2584 13.3033C8 12.795 8 12.13 8 10.8ZM8 22.2C8 20.87 8 20.205 8.2584 19.6967C8.4863 19.25 8.84978 18.8868 9.29675 18.6593C9.805 18.4 10.47 18.4 11.8 18.4C13.13 18.4 13.795 18.4 14.3033 18.6593C14.7502 18.8868 15.1137 19.25 15.3416 19.6967C15.6 20.205 15.6 20.87 15.6 22.2C15.6 23.53 15.6 24.195 15.3416 24.7032C15.1137 25.15 14.7502 25.5132 14.3033 25.7406C13.795 26 13.13 26 11.8 26C10.47 26 9.805 26 9.29675 25.7406C8.84978 25.5132 8.4863 25.15 8.2584 24.7032C8 24.195 8 23.53 8 22.2ZM19.4 22.2C19.4 20.87 19.4 20.205 19.6593 19.6967C19.887 19.2501 20.2501 18.887 20.6967 18.6593C21.205 18.4 21.87 18.4 23.2 18.4C24.53 18.4 25.195 18.4 25.7032 18.6593C26.1499 18.887 26.513 19.2501 26.7406 19.6967C27 20.205 27 20.87 27 22.2C27 23.53 27 24.195 26.7406 24.7032C26.513 25.1499 26.1499 25.513 25.7032 25.7406C25.195 26 24.53 26 23.2 26C21.87 26 21.205 26 20.6967 25.7406C20.2501 25.513 19.887 25.1499 19.6593 24.7032C19.4 24.195 19.4 23.53 19.4 22.2Z" stroke="#646464" stroke-width="1.5" stroke-linecap="round" stroke-linejoin="round"/>
<path d="M23.2 13.9892V15.075M23.2 13.9892C22.7463 13.9909 22.2991 13.8817 21.8972 13.6711C21.4954 13.4605 21.1511 13.1548 20.8943 12.7807M23.2 13.9892C23.6537 13.9909 24.1009 13.8817 24.5028 13.6711C24.9046 13.4605 25.2489 13.1548 25.5056 12.7807M20.8943 12.7807L19.875 13.4457M20.8943 12.7807C20.59 12.3376 20.4271 11.8126 20.4271 11.275C20.4271 10.7374 20.59 10.2124 20.8943 9.76925M25.5056 12.7807L26.525 13.4457M25.5056 12.7807C25.81 12.3376 25.9729 11.8126 25.9729 11.275C25.9729 10.7374 25.81 10.2124 25.5056 9.76925M23.2 8.56085C23.6537 8.55911 24.1009 8.6683 24.5028 8.87892C24.9046 9.08953 25.2489 9.39518 25.5056 9.76925M23.2 8.56085C22.7463 8.55911 22.2991 8.6683 21.8972 8.87892C21.4954 9.08953 21.1511 9.39518 20.8943 9.76925M23.2 8.56085V7.475M25.5056 9.76925L26.525 9.1033M20.8943 9.76925L19.875 9.10425M8 10.8C8 9.47 8 8.805 8.2584 8.29675C8.48614 7.84964 8.84964 7.48614 9.29675 7.2584C9.805 7 10.47 7 11.8 7C13.13 7 13.795 7 14.3033 7.2584C14.7504 7.48614 15.1139 7.84964 15.3416 8.29675C15.6 8.805 15.6 9.47 15.6 10.8C15.6 12.13 15.6 12.795 15.3416 13.3033C15.1139 13.7504 14.7504 14.1139 14.3033 14.3416C13.795 14.6 13.13 14.6 11.8 14.6C10.47 14.6 9.805 14.6 9.29675 14.3416C8.84964 14.1139 8.48614 13.7504 8.2584 13.3033C8 12.795 8 12.13 8 10.8ZM8 22.2C8 20.87 8 20.205 8.2584 19.6967C8.4863 19.25 8.84978 18.8868 9.29675 18.6593C9.805 18.4 10.47 18.4 11.8 18.4C13.13 18.4 13.795 18.4 14.3033 18.6593C14.7502 18.8868 15.1137 19.25 15.3416 19.6967C15.6 20.205 15.6 20.87 15.6 22.2C15.6 23.53 15.6 24.195 15.3416 24.7032C15.1137 25.15 14.7502 25.5132 14.3033 25.7406C13.795 26 13.13 26 11.8 26C10.47 26 9.805 26 9.29675 25.7406C8.84978 25.5132 8.4863 25.15 8.2584 24.7032C8 24.195 8 23.53 8 22.2ZM19.4 22.2C19.4 20.87 19.4 20.205 19.6593 19.6967C19.887 19.2501 20.2501 18.887 20.6967 18.6593C21.205 18.4 21.87 18.4 23.2 18.4C24.53 18.4 25.195 18.4 25.7032 18.6593C26.1499 18.887 26.513 19.2501 26.7406 19.6967C27 20.205 27 20.87 27 22.2C27 23.53 27 24.195 26.7406 24.7032C26.513 25.1499 26.1499 25.513 25.7032 25.7406C25.195 26 24.53 26 23.2 26C21.87 26 21.205 26 20.6967 25.7406C20.2501 25.513 19.887 25.1499 19.6593 24.7032C19.4 24.195 19.4 23.53 19.4 22.2Z" stroke="white" stroke-width="1.5" stroke-linecap="round" stroke-linejoin="round"/>
</svg>
