<svg width="34" height="34" viewBox="0 0 34 34" fill="none" xmlns="http://www.w3.org/2000/svg">
<path d="M18.3933 8.73613L18.195 8.45835C17.3641 7.29513 15.6353 7.29513 14.8044 8.45835L14.606 8.73613C14.1673 9.35029 13.4308 9.67916 12.6806 9.59581L11.7963 9.49755C10.4693 9.35011 9.34816 10.4713 9.4956 11.7982L9.59386 12.6826C9.67721 13.4327 9.34834 14.1693 8.73418 14.608L8.4564 14.8063C7.29318 15.6373 7.29318 17.366 8.4564 18.1969L8.73418 18.3953C9.34834 18.834 9.67721 19.5706 9.59386 20.3207L9.4956 21.2051C9.34816 22.5319 10.4693 23.6532 11.7963 23.5057L12.6806 23.4075C13.4308 23.3241 14.1673 23.653 14.606 24.2672L14.8044 24.5449C15.6353 25.7081 17.3641 25.7081 18.195 24.5449L18.3933 24.2672C18.8321 23.653 19.5686 23.3241 20.3187 23.4075L21.2031 23.5057C22.53 23.6532 23.6512 22.5319 23.5037 21.2051L23.4055 20.3207C23.3222 19.5706 23.651 18.834 24.2652 18.3953L24.5429 18.1969C25.7061 17.366 25.7061 15.6373 24.5429 14.8063L24.2652 14.608C23.651 14.1693 23.3222 13.4327 23.4055 12.6826L23.5037 11.7982C23.6512 10.4713 22.53 9.35011 21.2031 9.49755L20.3187 9.59581C19.5686 9.67916 18.8321 9.35029 18.3933 8.73613Z" stroke="white" stroke-width="1.5" stroke-linecap="round" stroke-linejoin="round"/>
<path d="M13.375 16.4974L15.2697 18.3921C15.3739 18.4963 15.5428 18.4963 15.647 18.3921L19.625 14.4141" stroke="white" stroke-width="1.5" stroke-linecap="round" stroke-linejoin="round"/>
</svg>
