<svg width="34" height="34" viewBox="0 0 34 34" fill="none" xmlns="http://www.w3.org/2000/svg">
<path fill-rule="evenodd" clip-rule="evenodd" d="M14.001 16C15.3817 16 16.501 14.8807 16.501 13.5C16.501 12.1193 15.3817 11 14.001 11C12.6203 11 11.501 12.1193 11.501 13.5C11.501 14.8807 12.6203 16 14.001 16Z" stroke="white" stroke-width="1.5" stroke-linecap="round"/>
<path d="M8 24.9922C8 21.6785 10.6863 18.9922 14 18.9922C17.3137 18.9922 20 21.6785 20 24.9922" stroke="white" stroke-width="1.5" stroke-linecap="round"/>
<path d="M20 16C21.3807 16 22.5 14.8807 22.5 13.5C22.5 12.1193 21.3807 11 20 11" stroke="white" stroke-width="1.5" stroke-linecap="round"/>
<path d="M21.1348 19.1016C23.9061 19.6319 26.0004 22.0686 26.0004 24.9945" stroke="white" stroke-width="1.5" stroke-linecap="round"/>
</svg>
